<svg xmlns="http://www.w3.org/2000/svg" width="412.928" height="263.978" viewBox="0 0 412.928 263.978">
  <g id="Grupo_192" data-name="Grupo 192" transform="translate(-5814.072 -2574.353)">
    <path id="Caminho_197" data-name="Caminho 197" d="M270.338,175.006l4.8,8.639H254.019l10.559-18.238,14.4-24,47.036-75.834h-28.8l-32.637,52.8L198.344,9.9l-60.475,98.872,14.4,24,46.076-75.834,51.836,84.473-5.76,8.639-34.557,57.6-11.519,19.2-11.519-19.2h11.519l14.4-24H171.466l-8.639-15.359h0l-16.319-26.878h0l-14.4-23.038h0l-33.6-53.755L10.2,207.643H39.957l58.555-95.992,18.238,29.757L76.434,207.643h70.074l-15.359-24H120.591l11.519-18.238,6.719,12.479,41.277,66.234,18.238,29.758,40.317-66.234h81.593l-35.517-56.635Z" transform="translate(5803.872 2564.453)" fill="#eebb02"/>
    <g id="Grupo_191" data-name="Grupo 191" transform="translate(-1 10)">
      <text id="never" transform="translate(6178 2693)" fill="#515151" font-size="33" font-family="Poppins-MediumItalic, Poppins" font-weight="500" font-style="italic"><tspan x="-47.388" y="0">never</tspan></text>
      <text id="again" transform="translate(6179 2722)" fill="#515151" font-size="33" font-family="Poppins-MediumItalic, Poppins" font-weight="500" font-style="italic"><tspan x="-48.395" y="0">again</tspan></text>
    </g>
  </g>
</svg>
