<?xml version="1.0" encoding="utf-8"?>
<!-- Generator: Adobe Illustrator 23.0.0, SVG Export Plug-In . SVG Version: 6.00 Build 0)  -->
<svg version="1.1" id="Layer_1" xmlns="http://www.w3.org/2000/svg" xmlns:xlink="http://www.w3.org/1999/xlink" x="0px" y="0px"
	 viewBox="0 0 53 46" style="enable-background:new 0 0 53 46;" xml:space="preserve">
<style type="text/css">
	.st0{fill:#696868;}
</style>
<g>
	<path class="st0" d="M0.4,0.8v44.3h52.3V0.8H0.4z M1.2,1.7h50.6v42.7H1.2V1.7z"/>
	<polygon class="st0" points="37.3,27.1 37.8,28 35.6,28 36.7,26.1 38.2,23.6 43.1,15.7 40.1,15.7 36.7,21.2 29.8,9.9 23.5,20.2 
		25,22.7 29.8,14.8 35.2,23.6 34.6,24.5 31,30.5 29.8,32.5 28.6,30.5 29.8,30.5 31.3,28 27,28 26.1,26.4 26.1,26.4 24.4,23.6 
		24.4,23.6 22.9,21.2 22.9,21.2 19.4,15.6 10.2,30.5 13.3,30.5 19.4,20.5 21.3,23.6 17.1,30.5 24.4,30.5 22.8,28 21.7,28 22.9,26.1 
		23.6,27.4 27.9,34.3 29.8,37.4 34,30.5 42.5,30.5 38.8,24.6 	"/>
</g>
</svg>
