<?xml version="1.0" encoding="utf-8"?>
<!-- Generator: Adobe Illustrator 23.0.0, SVG Export Plug-In . SVG Version: 6.00 Build 0)  -->
<svg version="1.1" id="Layer_1" xmlns="http://www.w3.org/2000/svg" xmlns:xlink="http://www.w3.org/1999/xlink" x="0px" y="0px"
	 viewBox="0 0 207.3 46.7" style="enable-background:new 0 0 207.3 46.7;" xml:space="preserve">
<style type="text/css">
	.st0{fill:#FFFFFF;}
</style>
<g>
	<g>
		<path class="st0" d="M75.9,30.9h-3.6l-6-9.1v9.1h-3.6V16.1h3.6l6,9.2v-9.2h3.6V30.9z"/>
		<path class="st0" d="M78.7,14.5c0.4-0.4,0.9-0.5,1.6-0.5c0.6,0,1.2,0.2,1.6,0.5c0.4,0.4,0.6,0.8,0.6,1.4c0,0.5-0.2,1-0.6,1.3
			c-0.4,0.4-0.9,0.5-1.6,0.5c-0.6,0-1.2-0.2-1.6-0.5c-0.4-0.4-0.6-0.8-0.6-1.3C78.1,15.4,78.3,14.9,78.7,14.5z M82,19.2v11.7h-3.6
			V19.2H82z"/>
		<path class="st0" d="M93.6,20.3c1,0.8,1.7,2,1.9,3.4h-3.8c-0.1-0.5-0.3-0.9-0.7-1.2c-0.3-0.3-0.8-0.4-1.3-0.4
			c-0.6,0-1.1,0.2-1.6,0.7c-0.4,0.5-0.6,1.2-0.6,2.2s0.2,1.7,0.6,2.2c0.4,0.5,0.9,0.7,1.6,0.7c0.5,0,1-0.1,1.3-0.4
			c0.3-0.3,0.6-0.7,0.7-1.2h3.8c-0.3,1.5-0.9,2.6-1.9,3.4c-1,0.8-2.3,1.2-3.8,1.2c-1.1,0-2.2-0.2-3.1-0.7c-0.9-0.5-1.6-1.2-2.1-2.1
			c-0.5-0.9-0.8-2-0.8-3.2c0-1.2,0.2-2.3,0.7-3.2c0.5-0.9,1.2-1.6,2.1-2.1c0.9-0.5,1.9-0.7,3.1-0.7C91.3,19,92.5,19.5,93.6,20.3z"/>
		<path class="st0" d="M104.4,30.9l-3.5-5v5h-3.6V15.4h3.6v8.5l3.5-4.7h4.2l-4.7,5.9l4.8,5.9H104.4z"/>
		<path class="st0" d="M124.8,16.8c1.1,0.7,2,1.6,2.7,2.7c0.7,1.2,1,2.5,1,3.9c0,1.5-0.3,2.8-1,3.9c-0.7,1.2-1.6,2.1-2.7,2.7
			c-1.1,0.7-2.4,1-3.8,1c-1.4,0-2.6-0.3-3.8-1c-1.1-0.7-2-1.6-2.7-2.7c-0.7-1.2-1-2.5-1-3.9c0-1.5,0.3-2.8,1-3.9
			c0.7-1.2,1.6-2.1,2.7-2.7c1.1-0.6,2.4-1,3.8-1C122.4,15.8,123.7,16.1,124.8,16.8z M118.2,20.3c-0.7,0.8-1,1.8-1,3.1
			c0,1.3,0.3,2.3,1,3.1c0.7,0.8,1.6,1.2,2.8,1.2c1.2,0,2.1-0.4,2.8-1.2c0.7-0.8,1-1.8,1-3.1c0-1.3-0.3-2.3-1-3.1
			c-0.7-0.8-1.6-1.2-2.8-1.2C119.9,19.1,118.9,19.5,118.2,20.3z"/>
		<path class="st0" d="M134.1,15.4v15.5h-3.6V15.4H134.1z"/>
		<path class="st0" d="M143.3,19.6c0.6,0.4,1.1,1,1.4,1.7v-5.9h3.6v15.5h-3.6v-2.1c-0.3,0.7-0.8,1.3-1.4,1.7
			c-0.6,0.4-1.4,0.6-2.3,0.6c-1,0-1.8-0.2-2.6-0.7c-0.8-0.5-1.4-1.2-1.8-2.1c-0.4-0.9-0.7-2-0.7-3.2c0-1.2,0.2-2.3,0.7-3.2
			c0.4-0.9,1-1.6,1.8-2.1s1.6-0.7,2.6-0.7C141.9,19,142.7,19.2,143.3,19.6z M140.3,22.9c-0.5,0.5-0.7,1.2-0.7,2.1
			c0,0.9,0.2,1.6,0.7,2.1c0.5,0.5,1.1,0.8,1.9,0.8c0.8,0,1.4-0.3,1.9-0.8c0.5-0.5,0.7-1.2,0.7-2.1c0-0.9-0.2-1.6-0.7-2.1
			c-0.5-0.5-1.1-0.8-1.9-0.8C141.4,22.2,140.8,22.4,140.3,22.9z"/>
		<path class="st0" d="M156.6,17.6c-0.6,0-1,0.1-1.3,0.4c-0.3,0.3-0.4,0.7-0.4,1.2h2.1v3h-2.1v8.7h-3.6v-8.7h-1.4v-3h1.4V19
			c0-1.5,0.4-2.6,1.3-3.4c0.8-0.8,2.1-1.2,3.7-1.2c0.3,0,0.6,0,0.8,0v3.1L156.6,17.6z"/>
		<path class="st0" d="M158.8,14.5c0.4-0.4,0.9-0.5,1.6-0.5c0.6,0,1.2,0.2,1.6,0.5c0.4,0.4,0.6,0.8,0.6,1.4c0,0.5-0.2,1-0.6,1.3
			c-0.4,0.4-0.9,0.5-1.6,0.5c-0.6,0-1.2-0.2-1.6-0.5c-0.4-0.4-0.6-0.8-0.6-1.3C158.2,15.3,158.4,14.9,158.8,14.5z M162.1,19.2v11.7
			h-3.6V19.2H162.1z"/>
		<path class="st0" d="M175.6,25.7h-8.1c0,0.9,0.3,1.5,0.7,1.9c0.4,0.4,0.9,0.6,1.6,0.6c0.5,0,1-0.1,1.3-0.4c0.3-0.3,0.6-0.6,0.7-1
			h3.8c-0.2,0.8-0.5,1.6-1,2.2c-0.5,0.6-1.2,1.2-2,1.5c-0.8,0.4-1.7,0.6-2.7,0.6c-1.1,0-2.2-0.2-3.1-0.7c-0.9-0.5-1.6-1.2-2.1-2.1
			c-0.5-0.9-0.8-2-0.8-3.2c0-1.2,0.2-2.3,0.7-3.2c0.5-0.9,1.2-1.6,2.1-2.1c0.9-0.5,1.9-0.7,3.1-0.7c1.2,0,2.2,0.2,3.1,0.7
			c0.9,0.5,1.6,1.1,2,2c0.5,0.9,0.7,1.8,0.7,3C175.7,25,175.7,25.3,175.6,25.7z M171.5,22.4c-0.4-0.4-1-0.6-1.6-0.6
			c-0.7,0-1.2,0.2-1.6,0.6s-0.7,1-0.7,1.7h4.6C172.1,23.4,171.9,22.8,171.5,22.4z"/>
		<path class="st0" d="M181.2,15.4v15.5h-3.6V15.4H181.2z"/>
		<path class="st0" d="M190.4,19.6c0.6,0.4,1.1,1,1.4,1.7v-5.9h3.6v15.5h-3.6v-2.1c-0.3,0.7-0.8,1.3-1.4,1.7
			c-0.6,0.4-1.4,0.6-2.3,0.6c-1,0-1.8-0.2-2.6-0.7c-0.8-0.5-1.4-1.2-1.8-2.1c-0.4-0.9-0.7-2-0.7-3.2c0-1.2,0.2-2.3,0.7-3.2
			c0.4-0.9,1-1.6,1.8-2.1c0.8-0.5,1.6-0.7,2.6-0.7C189,19,189.7,19.2,190.4,19.6z M187.4,22.9c-0.5,0.5-0.7,1.2-0.7,2.1
			c0,0.9,0.2,1.6,0.7,2.1c0.5,0.5,1.1,0.8,1.9,0.8c0.8,0,1.4-0.3,1.9-0.8c0.5-0.5,0.7-1.2,0.7-2.1c0-0.9-0.2-1.6-0.7-2.1
			c-0.5-0.5-1.1-0.8-1.9-0.8C188.5,22.2,187.8,22.4,187.4,22.9z"/>
	</g>
	<path class="st0" d="M0.8,1.2v44.3h205.7V1.2H0.8z M1.6,2h50.6v42.7H1.6V2z M205.7,44.7H53.1V2h152.6V44.7z"/>
	<polygon class="st0" points="37.7,27.5 38.3,28.3 36,28.3 37.1,26.5 38.6,24 43.5,16.1 40.5,16.1 37.1,21.5 30.2,10.2 23.9,20.5 
		25.4,23 30.2,15.2 35.6,24 35.1,24.9 31.4,30.9 30.2,32.8 29,30.9 30.2,30.9 31.8,28.3 27.4,28.3 26.5,26.8 26.5,26.8 24.8,24 
		24.8,24 23.3,21.5 23.3,21.5 19.8,15.9 10.7,30.9 13.7,30.9 19.8,20.9 21.8,24 17.5,30.9 24.8,30.9 23.2,28.3 22.1,28.3 23.3,26.5 
		24,27.7 28.3,34.6 30.2,37.8 34.4,30.9 42.9,30.9 39.3,25 	"/>
</g>
</svg>
