<?xml version="1.0" encoding="utf-8"?>
<!-- Generator: Adobe Illustrator 23.0.0, SVG Export Plug-In . SVG Version: 6.00 Build 0)  -->
<svg version="1.1" id="Layer_1" xmlns="http://www.w3.org/2000/svg" xmlns:xlink="http://www.w3.org/1999/xlink" x="0px" y="0px"
	 viewBox="0 0 17.3 97.7" style="enable-background:new 0 0 17.3 97.7;" xml:space="preserve">
<style type="text/css">
	.st0{fill:none;stroke:#FFFFFF;stroke-miterlimit:10;}
	.st1{fill:#FFFFFF;}
</style>
<g>
	<g>
		<path class="st0" d="M8.6,95.9L8.6,95.9c-3.4,0-6.1-2.7-6.1-6.1v-5.1c0-3.4,2.7-6.1,6.1-6.1h0c3.4,0,6.1,2.7,6.1,6.1v5.1
			C14.8,93.1,12,95.9,8.6,95.9z"/>
		<line class="st0" x1="8.6" y1="82" x2="8.6" y2="86.4"/>
	</g>
	<g>
		<path class="st1" d="M5.6,67.3c0.4-0.5,1-0.8,1.7-1v1.9c-0.3,0.1-0.5,0.2-0.6,0.4c-0.2,0.2-0.2,0.4-0.2,0.7c0,0.2,0,0.4,0.1,0.5
			c0.1,0.1,0.2,0.2,0.4,0.2c0.2,0,0.4-0.1,0.5-0.3s0.2-0.6,0.3-1c0.1-0.5,0.2-0.9,0.4-1.3s0.3-0.6,0.6-0.9s0.7-0.4,1.1-0.4
			c0.4,0,0.7,0.1,1,0.3s0.5,0.5,0.7,0.9c0.2,0.4,0.3,0.9,0.3,1.4c0,0.9-0.2,1.6-0.6,2.2c-0.4,0.5-1,0.9-1.7,1v-2
			c0.3,0,0.5-0.2,0.7-0.4c0.2-0.2,0.2-0.5,0.2-0.8c0-0.2-0.1-0.4-0.2-0.5c-0.1-0.1-0.3-0.2-0.4-0.2c-0.2,0-0.4,0.1-0.5,0.3
			c-0.1,0.2-0.2,0.6-0.3,1.1c-0.1,0.5-0.2,0.9-0.3,1.2c-0.1,0.3-0.3,0.6-0.6,0.8C7.8,71.9,7.4,72,6.9,72c-0.6,0-1.1-0.2-1.5-0.7
			s-0.6-1.1-0.6-1.9C4.9,68.5,5.1,67.8,5.6,67.3z"/>
		<path class="st1" d="M5.6,59.9c0.5-0.6,1.1-1,2-1.1V61c-0.3,0.1-0.5,0.2-0.7,0.4c-0.2,0.2-0.2,0.5-0.2,0.8c0,0.4,0.1,0.7,0.4,0.9
			s0.7,0.3,1.2,0.3s1-0.1,1.2-0.3c0.3-0.2,0.4-0.5,0.4-0.9c0-0.3-0.1-0.6-0.2-0.8c-0.2-0.2-0.4-0.3-0.7-0.4v-2.2
			c0.8,0.2,1.5,0.5,2,1.1c0.5,0.6,0.7,1.3,0.7,2.2c0,0.7-0.1,1.2-0.4,1.7c-0.3,0.5-0.7,0.9-1.2,1.2c-0.5,0.3-1.1,0.4-1.8,0.4
			c-0.7,0-1.3-0.1-1.8-0.4c-0.5-0.3-0.9-0.7-1.2-1.2c-0.3-0.5-0.4-1.1-0.4-1.8C4.9,61.3,5.2,60.5,5.6,59.9z"/>
		<path class="st1" d="M5.3,54.7c-0.2-0.4-0.4-0.8-0.4-1.3h2.2V54c0,0.5,0.1,1,0.3,1.3c0.2,0.3,0.6,0.5,1.2,0.5h3v2.1H5v-2.1h1.3
			C5.9,55.5,5.5,55.1,5.3,54.7z"/>
		<path class="st1" d="M5.3,47.6c0.3-0.5,0.7-0.9,1.2-1.2C7,46.1,7.7,46,8.4,46c0.7,0,1.3,0.1,1.8,0.4c0.5,0.3,0.9,0.7,1.2,1.2
			c0.3,0.5,0.4,1.1,0.4,1.8s-0.1,1.3-0.4,1.8c-0.3,0.5-0.7,0.9-1.2,1.2c-0.5,0.3-1.1,0.4-1.8,0.4c-0.7,0-1.3-0.1-1.8-0.4
			c-0.5-0.3-0.9-0.7-1.2-1.2c-0.3-0.5-0.4-1.1-0.4-1.8S5.1,48.2,5.3,47.6z M7.1,50.4c0.3,0.3,0.7,0.4,1.2,0.4s0.9-0.1,1.2-0.4
			c0.3-0.3,0.4-0.6,0.4-1s-0.1-0.7-0.4-1C9.3,48.2,8.9,48,8.4,48s-0.9,0.1-1.2,0.4c-0.3,0.3-0.4,0.6-0.4,1S6.8,50.1,7.1,50.4z"/>
		<path class="st1" d="M2.8,42.8h8.9v2.1H2.8V42.8z"/>
		<path class="st1" d="M2.8,39.4h8.9v2.1H2.8V39.4z"/>
		<path class="st1" d="M5.3,31.7c0.2-0.4,0.5-0.6,0.9-0.8H2.8v-2.1h8.9v2.1h-1.2c0.4,0.2,0.7,0.4,0.9,0.8c0.2,0.4,0.3,0.8,0.3,1.3
			c0,0.6-0.1,1-0.4,1.5c-0.3,0.4-0.7,0.8-1.2,1c-0.5,0.3-1.1,0.4-1.8,0.4c-0.7,0-1.3-0.1-1.8-0.4c-0.5-0.3-0.9-0.6-1.2-1
			c-0.3-0.4-0.4-0.9-0.4-1.5C4.9,32.5,5,32.1,5.3,31.7z M7.2,33.4c0.3,0.3,0.7,0.4,1.2,0.4c0.5,0,0.9-0.1,1.2-0.4
			c0.3-0.3,0.4-0.6,0.4-1.1c0-0.4-0.1-0.8-0.4-1.1c-0.3-0.3-0.7-0.4-1.2-0.4c-0.5,0-0.9,0.1-1.2,0.4c-0.3,0.3-0.4,0.6-0.4,1.1
			C6.7,32.8,6.9,33.1,7.2,33.4z"/>
		<path class="st1" d="M5.3,22.5C5.6,22,6,21.6,6.5,21.3C7,21,7.7,20.8,8.4,20.8c0.7,0,1.3,0.1,1.8,0.4c0.5,0.3,0.9,0.7,1.2,1.2
			c0.3,0.5,0.4,1.1,0.4,1.8s-0.1,1.3-0.4,1.8c-0.3,0.5-0.7,0.9-1.2,1.2c-0.5,0.3-1.1,0.4-1.8,0.4c-0.7,0-1.3-0.1-1.8-0.4
			C6,27,5.6,26.6,5.3,26.1c-0.3-0.5-0.4-1.1-0.4-1.8S5.1,23,5.3,22.5z M7.1,25.3c0.3,0.3,0.7,0.4,1.2,0.4s0.9-0.1,1.2-0.4
			c0.3-0.3,0.4-0.6,0.4-1s-0.1-0.7-0.4-1c-0.3-0.3-0.7-0.4-1.2-0.4S7.4,23,7.1,23.3c-0.3,0.3-0.4,0.6-0.4,1S6.8,25,7.1,25.3z"/>
		<path class="st1" d="M5,10l6.7,1.7V14l-4.5,1.2l4.5,1.2v2.3L5,20.4v-2.1l4.8-0.9L5,16.2V14l4.8-1.3L5,11.9V10z"/>
		<path class="st1" d="M5.7,3.1c0.5-0.5,1.2-0.7,2.1-0.7h3.9v2.1H8.1c-0.4,0-0.8,0.1-1,0.4C6.7,5.1,6.6,5.4,6.6,5.8
			c0,0.4,0.1,0.7,0.4,1C7.3,7,7.7,7.2,8.1,7.2h3.6v2.1H5V7.2h1.2C5.8,7,5.5,6.7,5.3,6.3S4.9,5.5,4.9,5C4.9,4.2,5.2,3.6,5.7,3.1z"/>
	</g>
</g>
</svg>
