<?xml version="1.0" standalone="no"?>
<!DOCTYPE svg PUBLIC "-//W3C//DTD SVG 20010904//EN"
 "http://www.w3.org/TR/2001/REC-SVG-20010904/DTD/svg10.dtd">
<svg version="1.0" xmlns="http://www.w3.org/2000/svg"
 width="848.000000pt" height="848.000000pt" viewBox="0 0 848.000000 848.000000"
 preserveAspectRatio="xMidYMid meet">
<metadata>
Created by potrace 1.11, written by Peter Selinger 2001-2013
</metadata>
<g transform="translate(0.000000,848.000000) scale(0.100000,-0.100000)"
fill="#000000" stroke="none">
<path d="M90 7792 l-25 -3 0 -3542 0 -3542 4183 0 4182 -1 1 26 c1 31 0 7017
0 7045 -1 20 -8 20 -4159 20 -2286 0 -4168 -1 -4182 -3z m8196 -3561 l-1
-3415 -4046 -1 -4046 0 0 3410 c-1 1876 1 3413 3 3416 2 4 1823 6 4047 6
l4044 0 -1 -3416z"/>
<path d="M4691 6213 c-40 -65 -76 -125 -81 -133 -143 -236 -211 -347 -218
-355 -5 -6 -11 -15 -13 -20 -10 -25 -125 -210 -131 -213 -5 -2 -8 -8 -8 -14 0
-6 -11 -26 -26 -45 -14 -18 -22 -33 -19 -33 3 0 1 -6 -5 -12 -6 -7 -63 -98
-127 -203 -64 -104 -157 -258 -208 -340 -50 -83 -89 -157 -87 -165 3 -8 23
-44 45 -80 22 -36 48 -78 57 -95 56 -99 123 -205 130 -205 7 0 58 82 356 575
57 94 108 175 114 182 5 7 10 14 10 17 0 3 41 71 90 152 50 80 90 147 90 149
0 2 24 42 54 89 l53 86 29 -43 c16 -23 29 -44 29 -47 0 -3 8 -16 16 -30 87
-136 109 -171 109 -176 0 -3 14 -25 30 -49 17 -24 30 -48 30 -54 0 -6 3 -11 8
-11 4 0 12 -9 17 -20 6 -11 34 -58 63 -106 28 -47 52 -89 52 -94 0 -5 4 -10 8
-12 5 -1 41 -57 81 -123 40 -66 133 -218 207 -338 74 -120 134 -223 134 -228
0 -5 4 -9 8 -9 5 0 16 -16 26 -36 16 -36 16 -37 -9 -69 -14 -19 -25 -38 -25
-43 0 -6 -4 -12 -8 -14 -5 -1 -39 -55 -78 -118 -38 -63 -72 -116 -76 -118 -5
-2 -8 -8 -8 -13 0 -9 -64 -120 -115 -199 -12 -19 -96 -159 -186 -310 -90 -151
-166 -277 -170 -280 -3 -3 -8 -10 -10 -17 -8 -23 -154 -263 -161 -263 -5 0
-47 64 -68 105 -3 6 -17 28 -30 50 -14 22 -24 43 -22 48 1 4 -2 7 -6 7 -5 0
-21 23 -36 51 -25 45 -26 50 -10 49 11 -1 53 -2 95 -1 l77 1 120 200 120 200
-56 1 c-32 0 -187 1 -346 2 l-288 2 -69 122 c-38 68 -144 246 -235 395 -92
150 -173 284 -181 298 -8 14 -36 59 -63 100 -42 65 -123 195 -155 248 -30 50
-60 98 -64 102 -8 7 -30 42 -38 60 -3 8 -23 40 -42 70 -20 31 -41 64 -48 75
-6 11 -69 112 -140 224 -70 113 -130 209 -133 215 -3 6 -13 24 -24 39 l-19 28
-16 -23 c-29 -42 -191 -300 -191 -306 0 -3 -11 -20 -26 -39 -14 -18 -21 -33
-17 -33 4 0 3 -4 -3 -8 -10 -6 -128 -193 -164 -259 -8 -16 -18 -29 -22 -31 -5
-2 -8 -10 -8 -18 0 -8 -4 -14 -10 -14 -5 0 -10 -4 -10 -9 0 -5 -33 -61 -72
-125 -40 -64 -80 -129 -89 -144 -89 -149 -425 -688 -431 -690 -4 -2 -8 -8 -8
-12 0 -5 -82 -141 -181 -302 -204 -329 -222 -359 -216 -364 4 -4 200 -6 409
-5 l76 1 108 178 c60 97 112 180 117 183 5 3 7 8 6 10 -2 2 4 15 13 29 8 14
41 68 73 120 32 52 68 111 80 130 53 84 190 309 213 350 25 45 38 66 80 127
12 18 22 35 22 38 0 3 19 36 43 73 60 95 66 105 73 125 3 9 10 17 14 17 5 0
10 6 12 13 7 27 114 196 122 194 5 -2 14 -12 20 -23 6 -10 13 -21 16 -24 5 -5
8 -9 77 -125 26 -44 50 -84 52 -90 2 -5 8 -14 13 -20 5 -5 35 -52 67 -104 l59
-94 -46 -76 c-25 -42 -56 -94 -69 -116 -13 -22 -42 -69 -63 -104 -22 -34 -40
-64 -40 -66 0 -2 -17 -30 -37 -62 -61 -94 -63 -97 -70 -113 -4 -8 -11 -19 -15
-25 -11 -12 -295 -481 -313 -516 -10 -19 -11 -26 -2 -27 37 -3 1140 -2 1143 1
5 5 -88 151 -98 155 -4 2 -8 9 -8 16 0 7 -13 30 -30 52 -16 21 -30 45 -30 52
0 6 -3 12 -8 12 -4 0 -16 16 -27 36 -39 72 -46 76 -135 76 -44 0 -80 2 -80 4
0 5 12 25 65 109 87 137 118 185 120 183 3 -3 25 -44 90 -163 21 -38 51 -89
66 -112 16 -23 29 -44 29 -47 0 -3 13 -24 28 -48 36 -53 86 -133 139 -218 22
-36 60 -96 84 -134 24 -39 49 -78 54 -88 6 -10 87 -140 180 -290 94 -150 175
-280 180 -289 52 -90 80 -135 84 -139 10 -9 71 -111 71 -119 0 -4 9 -16 20
-26 10 -9 18 -20 18 -24 -1 -3 12 -28 29 -55 l31 -49 15 24 c30 47 211 345
245 404 20 33 39 62 43 65 4 3 12 15 16 26 4 11 55 96 112 189 57 94 135 220
173 282 l69 112 677 0 c372 0 676 3 675 8 -2 4 -60 100 -130 212 -71 113 -129
211 -131 218 -2 7 -7 13 -10 13 -4 0 -16 17 -27 38 -11 20 -26 43 -32 50 -7 7
-13 17 -13 22 0 5 -6 15 -12 22 -7 7 -22 29 -32 48 -11 19 -24 40 -28 45 -5 6
-41 62 -79 125 -39 63 -76 121 -83 128 -9 9 -30 -19 -96 -130 -47 -78 -87
-147 -89 -153 -2 -5 -7 -12 -11 -15 -4 -3 -17 -24 -29 -47 l-21 -43 35 -64
c19 -35 35 -67 35 -70 0 -3 -76 -5 -170 -4 -93 0 -170 5 -170 9 0 5 5 9 12 9
6 0 8 3 5 6 -4 4 2 19 12 33 10 14 21 33 25 41 4 8 12 24 19 35 7 11 48 81 91
155 44 74 83 137 88 138 4 2 8 8 8 13 0 12 219 378 237 397 7 7 13 17 13 22 0
5 6 15 13 22 6 8 19 27 28 43 15 28 344 560 414 670 73 114 225 363 225 368 0
3 -106 5 -235 5 l-235 0 -30 -43 c-17 -24 -30 -48 -30 -53 0 -6 -4 -12 -8 -14
-10 -4 -72 -105 -72 -117 0 -5 -4 -11 -8 -13 -5 -1 -28 -34 -51 -73 -44 -74
-69 -113 -242 -393 l-107 -173 -38 63 c-22 35 -43 71 -49 80 -5 10 -44 73 -85
140 -42 68 -139 225 -215 350 -77 125 -145 235 -150 245 -11 19 -62 103 -215
353 -49 80 -110 181 -137 224 -26 44 -57 94 -68 112 -81 133 -95 156 -95 165
0 5 -4 9 -9 9 -5 0 -14 14 -21 30 -7 17 -16 30 -20 30 -4 0 -40 -53 -79 -117z"/>
</g>
</svg>
